<svg width="29" height="27" viewBox="0 0 29 27" fill="none" xmlns="http://www.w3.org/2000/svg">
<path d="M7.01169 18.3267L7.01178 18.3267L7.01446 18.3133C7.13195 17.7258 7.12672 17.1679 6.92368 16.6291C6.72662 16.1061 6.38143 15.7059 6.02048 15.3662L6.02054 15.3661L6.01084 15.3573C5.88358 15.2406 5.75663 15.1245 5.63009 15.0088C4.42219 13.9043 3.25264 12.8348 2.22985 11.6522L2.22989 11.6522L2.22333 11.6447C2.01949 11.4137 1.80277 11.0754 1.6662 10.7462C1.59886 10.5839 1.56186 10.4497 1.54763 10.352C1.54066 10.3042 1.5407 10.2762 1.54118 10.2646L1.54269 10.2603L1.54289 10.2596C1.54991 10.2493 1.56647 10.227 1.5991 10.1935C1.66947 10.1211 1.78031 10.032 1.9319 9.93796C2.23966 9.74694 2.61472 9.59701 2.90877 9.53018L2.90879 9.53025L2.92052 9.52744C3.78616 9.31968 4.6887 9.1873 5.6353 9.05864C5.74648 9.04352 5.85844 9.02845 5.97103 9.01328C6.80163 8.90141 7.66671 8.78489 8.5102 8.61619L8.51022 8.61629L8.52361 8.61342C8.93001 8.52633 9.3352 8.33649 9.67783 8.09976C10.0152 7.86669 10.363 7.53885 10.5885 7.1233C11.5237 5.4394 12.3443 3.68629 13.1478 1.96974L13.1528 1.95904C13.3631 1.52175 13.5482 1.24003 13.7169 1.09248C13.7891 1.02927 13.8356 1.01151 13.8597 1.00542C13.8791 1.00051 13.929 0.990979 14.0341 1.021L14.0501 1.02557L14.0663 1.02962C14.5305 1.14567 15.1123 1.59361 15.3471 2.01621L15.356 2.03227L15.3655 2.04799C16.2866 3.57137 17.0357 5.2095 17.8121 6.91011C18.0483 7.42951 18.3721 7.88183 18.8508 8.20609C19.3223 8.52546 19.8531 8.65883 20.3956 8.70498C22.2071 8.88632 24.0342 9.13815 25.7782 9.52924C26.063 9.59783 26.4209 9.74099 26.7079 9.91734C26.8508 10.0051 26.9493 10.0848 27.0072 10.1447C27.0163 10.1542 27.0235 10.1622 27.0291 10.1687C27.0399 10.2618 27.0289 10.4632 26.9209 10.7617C26.8042 11.0842 26.6179 11.3962 26.431 11.6079L26.4271 11.6124C25.837 12.2893 25.1796 12.9216 24.4843 13.58C24.4257 13.6356 24.3667 13.6913 24.3075 13.7473C23.6794 14.3414 23.0229 14.9623 22.4118 15.6246C22.064 15.9798 21.8462 16.4425 21.7224 16.8552C21.5961 17.2764 21.5336 17.7587 21.5914 18.204C21.6996 19.1216 21.8746 20.0353 22.0417 20.9079C22.0529 20.966 22.064 21.0239 22.075 21.0816C22.2548 22.0222 22.4208 22.9175 22.5078 23.8034C22.5328 24.0683 22.5071 24.4292 22.4245 24.7493C22.384 24.9063 22.3363 25.0279 22.2918 25.1104C22.2681 25.1543 22.2512 25.1766 22.2446 25.1848L22.2413 25.1871L22.2307 25.1955C22.2252 25.1981 22.1938 25.2142 22.1232 25.2305C22.0265 25.2529 21.8943 25.2668 21.7355 25.2636C21.406 25.2568 21.0801 25.1792 20.8787 25.0838L20.8572 25.0736L20.8352 25.0644C19.3299 24.4372 17.907 23.6433 16.4357 22.8224C16.2467 22.7169 16.0569 22.611 15.866 22.505C15.3739 22.2246 14.8544 22.0486 14.2818 22.0641C13.7164 22.0794 13.2117 22.2788 12.7461 22.5449L12.7441 22.546C11.0488 23.5199 9.27526 24.4255 7.48759 25.3013C6.8855 25.5646 6.55202 25.4585 6.40162 25.3516C6.24102 25.2375 6.00352 24.921 6.00333 24.1962C6.06184 23.8292 6.12002 23.4551 6.17907 23.0754C6.41683 21.5466 6.66854 19.928 7.01169 18.3267ZM27.0459 10.1904C27.0459 10.1904 27.0455 10.1898 27.0449 10.1887C27.0456 10.1898 27.0459 10.1904 27.0459 10.1904Z" fill="black" stroke="black" stroke-width="2"/>
</svg>
